<svg width="182" height="45" viewBox="0 0 182 45" fill="none" xmlns="http://www.w3.org/2000/svg">
<g clip-path="url(#clip0_1012_308)">
<path d="M2.34245 4.67188C4.31611 5.18724 6.12563 5.55911 7.86626 6.13106C17.5441 9.30813 23.2908 16.1534 25.9291 25.7574C26.6302 28.3099 26.9625 30.9635 27.4509 33.5747C27.5157 33.9223 27.4934 34.2861 27.5258 34.9127C21.7771 30.4745 18.0993 24.6417 14.1803 19.0051C16.3161 26.1959 20.1175 32.2651 26.229 36.865C20.0729 36.3274 14.1155 36.8104 8.55522 39.7348C10.229 39.4074 11.8926 38.9992 13.5805 38.7728C15.3495 38.5364 17.1388 38.3969 18.924 38.3545C20.6646 38.312 22.4113 38.4454 24.2411 38.5061C20.5897 44.6702 8.00405 46.4952 0 42.0712C4.23911 35.2562 9.74468 30.9797 18.383 32.5602C18.3911 32.4308 18.4012 32.3035 18.4093 32.1741C16.8045 31.7578 15.2158 31.2667 13.5927 30.9494C12.5775 30.7513 11.5076 30.7453 10.4681 30.7796C9.80344 30.8019 9.41033 30.5573 9.02533 30.0743C7.07599 27.6187 6.06079 24.7974 5.79129 21.7173C5.35968 16.8102 4.68085 11.9516 3.18946 7.23859C2.94833 6.47464 2.68693 5.71473 2.34245 4.6739V4.67188Z" fill="#4F1034"/>
<path d="M28.452 43.482C28.2189 40.1857 28.0548 36.9601 30.3486 34.3328C31.1207 33.4496 32.381 32.9706 33.4591 32.3784C34.221 31.958 35.1024 31.7458 35.8319 31.283C36.9423 30.5797 37.1612 29.549 36.5553 28.3869C36.3243 27.9422 36.0143 27.536 35.7164 27.1298C35.1186 26.3113 34.685 25.521 35.224 24.4438C35.6597 23.5707 34.8694 23.2999 33.9211 22.9644C34.2797 22.7583 34.4884 22.6896 34.6283 22.5521C35.6556 21.5558 35.5928 21.0545 34.3729 20.3027C33.3517 19.6722 33.2402 19.2235 33.836 18.1402C35.1652 15.7251 34.9869 15.4381 32.1946 15.3835C30.3912 15.3471 28.6303 15.1309 27.2422 13.9546C27.5239 13.1078 27.7792 12.3358 28.0345 11.5658C27.9596 11.5536 27.8866 11.5415 27.8116 11.5314C27.2362 11.9801 26.6607 12.4288 25.9737 12.9643C25.7488 12.4409 25.6212 12.1418 25.4935 11.8427C24.5877 9.71248 23.0558 8.26542 20.8653 7.45902C20.3952 7.28522 19.8967 6.8608 19.6657 6.42021C18.6181 4.40726 16.9342 3.36643 14.6667 3.03902C20.0386 -0.184536 28.7316 -0.693838 35.7529 3.71202C43.6556 8.67165 47.378 17.5177 45.5381 26.8387C43.915 35.0583 36.8167 42.0491 28.454 43.482H28.452Z" fill="#4F1034"/>
</g>
<path d="M64.408 13.1607C65.368 13.1607 66.36 13.246 67.384 13.4167C68.4293 13.5874 69.2507 13.822 69.848 14.1207C70.04 14.206 70.1573 14.2914 70.2 14.3767C70.264 14.462 70.3067 14.622 70.328 14.8567L70.712 19.0167C70.712 19.0807 70.6587 19.1234 70.552 19.1447C70.4453 19.1447 70.3813 19.1127 70.36 19.0487C69.7413 17.3847 68.8027 16.1154 67.544 15.2407C66.3067 14.366 64.8453 13.9287 63.16 13.9287C60.92 13.9287 59.1707 14.7074 57.912 16.2647C56.6533 17.822 56.024 19.9127 56.024 22.5367C56.024 24.4994 56.376 26.302 57.08 27.9447C57.784 29.5874 58.744 30.8887 59.96 31.8487C61.1973 32.8087 62.5733 33.2887 64.088 33.2887C66.968 33.2887 69.1547 31.4967 70.648 27.9127C70.6907 27.8487 70.744 27.8167 70.808 27.8167C70.8507 27.8167 70.8933 27.838 70.936 27.8807C71 27.902 71.032 27.9234 71.032 27.9447L70.552 32.0407C70.5093 32.2967 70.456 32.4674 70.392 32.5527C70.3493 32.6167 70.232 32.6914 70.04 32.7767C68.184 33.5234 66.2107 33.8967 64.12 33.8967C61.5173 33.8967 59.352 33.3847 57.624 32.3607C55.896 31.3154 54.616 29.9927 53.784 28.3927C52.9733 26.7927 52.568 25.1287 52.568 23.4007C52.568 21.3954 53.112 19.614 54.2 18.0567C55.3093 16.4994 56.7707 15.294 58.584 14.4407C60.3973 13.5874 62.3387 13.1607 64.408 13.1607ZM77.1102 30.6647L91.1903 15.6567L91.7663 16.2007L77.7183 31.2407L77.1102 30.6647ZM73.4303 33.5127C73.3876 33.5127 73.3663 33.4487 73.3663 33.3207C73.3663 33.1927 73.3876 33.1287 73.4303 33.1287C74.1983 33.1287 74.7636 33.0754 75.1263 32.9687C75.4889 32.862 75.7343 32.6594 75.8623 32.3607C75.9903 32.0407 76.0543 31.5607 76.0543 30.9207V16.1047C76.0543 15.4647 75.9903 14.9954 75.8623 14.6967C75.7343 14.398 75.4889 14.1954 75.1263 14.0887C74.7636 13.9607 74.2089 13.8967 73.4622 13.8967C73.4196 13.8967 73.3983 13.8327 73.3983 13.7047C73.3983 13.5767 73.4196 13.5127 73.4622 13.5127L75.1583 13.5447C76.1396 13.5874 76.9076 13.6087 77.4623 13.6087C78.2089 13.6087 79.0943 13.5874 80.1183 13.5447L81.7823 13.5127C81.8249 13.5127 81.8463 13.5767 81.8463 13.7047C81.8463 13.8327 81.8249 13.8967 81.7823 13.8967C81.0143 13.8967 80.4383 13.9607 80.0543 14.0887C79.6916 14.2167 79.4356 14.4407 79.2863 14.7607C79.1583 15.0594 79.0943 15.5287 79.0943 16.1687V30.9207C79.0943 31.5607 79.1583 32.0407 79.2863 32.3607C79.4143 32.6594 79.6596 32.862 80.0223 32.9687C80.4063 33.0754 80.9929 33.1287 81.7823 33.1287C81.8249 33.1287 81.8463 33.1927 81.8463 33.3207C81.8463 33.4487 81.8249 33.5127 81.7823 33.5127C81.0569 33.5127 80.4916 33.502 80.0863 33.4807L77.4623 33.4487L75.1263 33.4807C74.7209 33.502 74.1556 33.5127 73.4303 33.5127ZM86.9983 33.5127C86.9343 33.5127 86.9023 33.4487 86.9023 33.3207C86.9023 33.1927 86.9343 33.1287 86.9983 33.1287C87.8089 33.1287 88.3956 33.0754 88.7583 32.9687C89.1423 32.862 89.3983 32.6594 89.5263 32.3607C89.6543 32.0407 89.7183 31.5607 89.7183 30.9207V16.1687C89.7183 15.5287 89.6543 15.0594 89.5263 14.7607C89.3983 14.4407 89.1423 14.2167 88.7583 14.0887C88.3743 13.9607 87.7876 13.8967 86.9983 13.8967C86.9343 13.8967 86.9023 13.8327 86.9023 13.7047C86.9023 13.5767 86.9343 13.5127 86.9983 13.5127L88.5343 13.5447C89.5583 13.5874 90.4649 13.6087 91.2543 13.6087C91.8303 13.6087 92.6089 13.5874 93.5903 13.5447L95.3503 13.5127C95.4143 13.5127 95.4463 13.5767 95.4463 13.7047C95.4463 13.8327 95.4143 13.8967 95.3503 13.8967C94.5823 13.8967 94.0169 13.9607 93.6543 14.0887C93.3129 14.1954 93.0783 14.398 92.9503 14.6967C92.8223 14.9954 92.7583 15.4647 92.7583 16.1047V30.9207C92.7583 31.5607 92.8223 32.0407 92.9503 32.3607C93.0783 32.6594 93.3129 32.862 93.6543 32.9687C94.0169 33.0754 94.5823 33.1287 95.3503 33.1287C95.4143 33.1287 95.4463 33.1927 95.4463 33.3207C95.4463 33.4487 95.4143 33.5127 95.3503 33.5127C94.6249 33.5127 94.0383 33.502 93.5903 33.4807L91.2543 33.4487L88.5343 33.4807C88.1503 33.502 87.6383 33.5127 86.9983 33.5127ZM114.966 33.1287C115.009 33.1287 115.03 33.1927 115.03 33.3207C115.03 33.4487 115.009 33.5127 114.966 33.5127C114.198 33.5127 113.612 33.502 113.206 33.4807L110.838 33.4487L108.502 33.4807C108.097 33.502 107.553 33.5127 106.87 33.5127C106.806 33.5127 106.774 33.4487 106.774 33.3207C106.774 33.1927 106.806 33.1287 106.87 33.1287C107.596 33.1287 108.118 33.0754 108.438 32.9687C108.78 32.862 109.004 32.6594 109.11 32.3607C109.238 32.062 109.302 31.582 109.302 30.9207V22.9847L110.358 23.1447C109.526 23.1447 108.822 23.262 108.246 23.4967C107.692 23.71 107.105 24.1687 106.486 24.8727C105.889 25.5767 105.174 26.6647 104.342 28.1367C103.276 29.9714 102.497 31.262 102.006 32.0087C101.537 32.734 101.206 33.1714 101.014 33.3207C100.822 33.4487 100.566 33.5127 100.246 33.5127H96.3742C96.3316 33.5127 96.3102 33.4487 96.3102 33.3207C96.3102 33.1927 96.3316 33.1287 96.3742 33.1287C96.9289 33.1074 97.4196 32.958 97.8463 32.6807C98.2729 32.382 98.6676 31.9874 99.0303 31.4967C99.3929 30.9847 99.9049 30.1847 100.566 29.0967C100.694 28.862 101.014 28.3287 101.526 27.4967C102.209 26.366 102.87 25.4914 103.51 24.8727C104.15 24.2327 104.822 23.7847 105.526 23.5287C106.23 23.2514 107.073 23.07 108.054 22.9847L108.278 23.2087C105.825 23.1874 103.948 22.75 102.646 21.8967C101.345 21.022 100.694 19.838 100.694 18.3447C100.694 17.3847 100.972 16.5314 101.526 15.7847C102.081 15.038 102.849 14.462 103.83 14.0567C104.812 13.63 105.91 13.4167 107.126 13.4167C107.617 13.4167 108.182 13.4487 108.822 13.5127C109.078 13.534 109.377 13.5554 109.718 13.5767C110.06 13.598 110.433 13.6087 110.838 13.6087C111.436 13.6087 112.225 13.5874 113.206 13.5447L114.934 13.5127C114.977 13.5127 114.998 13.5767 114.998 13.7047C114.998 13.8327 114.977 13.8967 114.934 13.8967C114.145 13.8967 113.569 13.9607 113.206 14.0887C112.844 14.1954 112.609 14.398 112.502 14.6967C112.396 14.974 112.342 15.4434 112.342 16.1047V30.9207C112.342 31.582 112.396 32.062 112.502 32.3607C112.63 32.6594 112.865 32.862 113.206 32.9687C113.569 33.0754 114.156 33.1287 114.966 33.1287ZM103.862 17.5447C103.862 19.0807 104.268 20.3074 105.078 21.2247C105.889 22.142 107.062 22.6007 108.598 22.6007C108.897 22.6007 109.217 22.5794 109.558 22.5367C109.921 22.494 110.209 22.4407 110.422 22.3767L109.302 22.7287V16.1687C109.302 15.3154 109.089 14.718 108.662 14.3767C108.257 14.014 107.734 13.8327 107.094 13.8327C104.94 13.8327 103.862 15.07 103.862 17.5447ZM133.696 16.1687C133.696 15.5287 133.632 15.0594 133.504 14.7607C133.376 14.4407 133.12 14.2167 132.736 14.0887C132.352 13.9607 131.765 13.8967 130.976 13.8967C130.912 13.8967 130.88 13.8327 130.88 13.7047C130.88 13.5767 130.912 13.5127 130.976 13.5127L132.512 13.5447C133.536 13.5874 134.443 13.6087 135.232 13.6087C135.808 13.6087 136.587 13.5874 137.568 13.5447L139.328 13.5127C139.392 13.5127 139.424 13.5767 139.424 13.7047C139.424 13.8327 139.392 13.8967 139.328 13.8967C138.56 13.8967 137.995 13.9607 137.632 14.0887C137.269 14.1954 137.024 14.398 136.896 14.6967C136.768 14.9954 136.704 15.4647 136.704 16.1047V30.9207C136.704 31.5607 136.768 32.0407 136.896 32.3607C137.024 32.6594 137.269 32.862 137.632 32.9687C137.995 33.0754 138.56 33.1287 139.328 33.1287C139.392 33.1287 139.424 33.1927 139.424 33.3207C139.424 33.4487 139.392 33.5127 139.328 33.5127C138.603 33.5127 138.016 33.502 137.568 33.4807L135.232 33.4487L132.512 33.4807C132.128 33.502 131.616 33.5127 130.976 33.5127C130.912 33.5127 130.88 33.4487 130.88 33.3207C130.88 33.1927 130.912 33.1287 130.976 33.1287C131.787 33.1287 132.373 33.0754 132.736 32.9687C133.12 32.862 133.376 32.6594 133.504 32.3607C133.632 32.0407 133.696 31.5607 133.696 30.9207V16.1687ZM121.056 22.6967H135.072V23.5287H121.056V22.6967ZM119.648 16.1047C119.648 15.4647 119.584 14.9954 119.456 14.6967C119.328 14.398 119.083 14.1954 118.72 14.0887C118.357 13.9607 117.803 13.8967 117.056 13.8967C117.013 13.8967 116.992 13.8327 116.992 13.7047C116.992 13.5767 117.013 13.5127 117.056 13.5127L118.752 13.5447C119.733 13.5874 120.501 13.6087 121.056 13.6087C121.803 13.6087 122.688 13.5874 123.712 13.5447L125.376 13.5127C125.419 13.5127 125.44 13.5767 125.44 13.7047C125.44 13.8327 125.419 13.8967 125.376 13.8967C124.608 13.8967 124.032 13.9607 123.648 14.0887C123.285 14.2167 123.029 14.4407 122.88 14.7607C122.752 15.0594 122.688 15.5287 122.688 16.1687V30.9207C122.688 31.5607 122.752 32.0407 122.88 32.3607C123.008 32.6594 123.253 32.862 123.616 32.9687C124 33.0754 124.587 33.1287 125.376 33.1287C125.419 33.1287 125.44 33.1927 125.44 33.3207C125.44 33.4487 125.419 33.5127 125.376 33.5127C124.651 33.5127 124.085 33.502 123.68 33.4807L121.056 33.4487L118.72 33.4807C118.315 33.502 117.749 33.5127 117.024 33.5127C116.981 33.5127 116.96 33.4487 116.96 33.3207C116.96 33.1927 116.981 33.1287 117.024 33.1287C117.792 33.1287 118.357 33.0754 118.72 32.9687C119.083 32.862 119.328 32.6594 119.456 32.3607C119.584 32.0407 119.648 31.5607 119.648 30.9207V16.1047ZM145.079 30.6647L159.159 15.6567L159.735 16.2007L145.687 31.2407L145.079 30.6647ZM141.399 33.5127C141.356 33.5127 141.335 33.4487 141.335 33.3207C141.335 33.1927 141.356 33.1287 141.399 33.1287C142.167 33.1287 142.732 33.0754 143.095 32.9687C143.458 32.862 143.703 32.6594 143.831 32.3607C143.959 32.0407 144.023 31.5607 144.023 30.9207V16.1047C144.023 15.4647 143.959 14.9954 143.831 14.6967C143.703 14.398 143.458 14.1954 143.095 14.0887C142.732 13.9607 142.178 13.8967 141.431 13.8967C141.388 13.8967 141.367 13.8327 141.367 13.7047C141.367 13.5767 141.388 13.5127 141.431 13.5127L143.127 13.5447C144.108 13.5874 144.876 13.6087 145.431 13.6087C146.178 13.6087 147.063 13.5874 148.087 13.5447L149.751 13.5127C149.794 13.5127 149.815 13.5767 149.815 13.7047C149.815 13.8327 149.794 13.8967 149.751 13.8967C148.983 13.8967 148.407 13.9607 148.023 14.0887C147.66 14.2167 147.404 14.4407 147.255 14.7607C147.127 15.0594 147.063 15.5287 147.063 16.1687V30.9207C147.063 31.5607 147.127 32.0407 147.255 32.3607C147.383 32.6594 147.628 32.862 147.991 32.9687C148.375 33.0754 148.962 33.1287 149.751 33.1287C149.794 33.1287 149.815 33.1927 149.815 33.3207C149.815 33.4487 149.794 33.5127 149.751 33.5127C149.026 33.5127 148.46 33.502 148.055 33.4807L145.431 33.4487L143.095 33.4807C142.69 33.502 142.124 33.5127 141.399 33.5127ZM154.967 33.5127C154.903 33.5127 154.871 33.4487 154.871 33.3207C154.871 33.1927 154.903 33.1287 154.967 33.1287C155.778 33.1287 156.364 33.0754 156.727 32.9687C157.111 32.862 157.367 32.6594 157.495 32.3607C157.623 32.0407 157.687 31.5607 157.687 30.9207V16.1687C157.687 15.5287 157.623 15.0594 157.495 14.7607C157.367 14.4407 157.111 14.2167 156.727 14.0887C156.343 13.9607 155.756 13.8967 154.967 13.8967C154.903 13.8967 154.871 13.8327 154.871 13.7047C154.871 13.5767 154.903 13.5127 154.967 13.5127L156.503 13.5447C157.527 13.5874 158.434 13.6087 159.223 13.6087C159.799 13.6087 160.578 13.5874 161.559 13.5447L163.319 13.5127C163.383 13.5127 163.415 13.5767 163.415 13.7047C163.415 13.8327 163.383 13.8967 163.319 13.8967C162.551 13.8967 161.986 13.9607 161.623 14.0887C161.282 14.1954 161.047 14.398 160.919 14.6967C160.791 14.9954 160.727 15.4647 160.727 16.1047V30.9207C160.727 31.5607 160.791 32.0407 160.919 32.3607C161.047 32.6594 161.282 32.862 161.623 32.9687C161.986 33.0754 162.551 33.1287 163.319 33.1287C163.383 33.1287 163.415 33.1927 163.415 33.3207C163.415 33.4487 163.383 33.5127 163.319 33.5127C162.594 33.5127 162.007 33.502 161.559 33.4807L159.223 33.4487L156.503 33.4807C156.119 33.502 155.607 33.5127 154.967 33.5127ZM165.719 33.5127C165.655 33.5127 165.623 33.4487 165.623 33.3207C165.623 33.1927 165.655 33.1287 165.719 33.1287C166.444 33.1287 166.967 33.0754 167.287 32.9687C167.628 32.862 167.852 32.6594 167.959 32.3607C168.087 32.0407 168.151 31.5607 168.151 30.9207V16.1047C168.151 15.4647 168.087 14.9954 167.959 14.6967C167.852 14.398 167.628 14.1954 167.287 14.0887C166.946 13.9607 166.423 13.8967 165.719 13.8967C165.655 13.8967 165.623 13.8327 165.623 13.7047C165.623 13.5767 165.655 13.5127 165.719 13.5127H179.031C179.244 13.5127 179.351 13.6087 179.351 13.8007L179.415 17.9607C179.415 18.0034 179.351 18.0354 179.223 18.0567C179.116 18.0567 179.052 18.0247 179.031 17.9607C178.519 15.55 177.047 14.3447 174.615 14.3447H173.303C172.514 14.3447 171.959 14.4834 171.639 14.7607C171.34 15.038 171.191 15.5074 171.191 16.1687V30.7927C171.191 31.4967 171.319 31.9874 171.575 32.2647C171.852 32.542 172.332 32.6807 173.015 32.6807H174.583C177.442 32.6807 179.255 31.3047 180.023 28.5527C180.023 28.51 180.076 28.4887 180.183 28.4887C180.332 28.4887 180.407 28.5207 180.407 28.5847C180.194 30.206 180.087 31.6887 180.087 33.0327C180.087 33.2034 180.055 33.3314 179.991 33.4167C179.927 33.4807 179.799 33.5127 179.607 33.5127H165.719ZM177.815 26.2807C177.815 24.446 176.62 23.5287 174.231 23.5287H169.751V22.6967H174.263C176.61 22.6967 177.783 21.9074 177.783 20.3287C177.783 20.2647 177.836 20.2327 177.943 20.2327C178.071 20.2327 178.135 20.2647 178.135 20.3287L178.103 23.1127L178.135 24.6167C178.178 25.2994 178.199 25.854 178.199 26.2807C178.199 26.3234 178.135 26.3447 178.007 26.3447C177.879 26.3447 177.815 26.3234 177.815 26.2807Z" fill="#4F1034"/>
<defs>
<clipPath id="clip0_1012_308">
<rect width="46" height="44" fill="white" transform="translate(0 0.512695)"/>
</clipPath>
</defs>
</svg>
