<svg width="35" height="98" viewBox="0 0 35 98" fill="none" xmlns="http://www.w3.org/2000/svg">
<path d="M28.0625 87.1875V89.875H0.125V87.1875L1 87.25C3.04167 87.2083 4.72917 86.5208 6.0625 85.1875C7.4375 83.8125 8.125 82.1458 8.125 80.1875V16.625H0.125V14.375L0.8125 14.25C1.77083 14.0417 2.52083 13.875 3.0625 13.75C4.47917 13.4167 5.83333 12.9167 7.125 12.25C9.41667 11.0417 11.4167 9.39583 13.125 7.3125C13.9167 6.3125 14.6042 5.25 15.1875 4.125C15.4792 3.54167 15.75 2.95833 16 2.375C16.0833 2.125 16.2917 1.52083 16.625 0.5625L16.8125 0H20.0625V80.1875C20.0625 82.1458 20.75 83.8125 22.125 85.1875C23.5417 86.5625 25.2292 87.25 27.1875 87.25L28.0625 87.1875Z" fill="#904F69" fill-opacity="0.54"/>
<path d="M15.3467 70.9022V72.3719H0.0683594V70.9022L0.546875 70.9364C1.66341 70.9136 2.58626 70.5376 3.31543 69.8085C4.06738 69.0565 4.44336 68.1451 4.44336 67.0741V32.3134H0.0683594V31.0829L0.444336 31.0145C0.968424 30.9006 1.37858 30.8094 1.6748 30.7411C2.44954 30.5588 3.1901 30.2854 3.89648 29.9208C5.14974 29.26 6.24349 28.3599 7.17773 27.2206C7.61068 26.6737 7.98665 26.0927 8.30566 25.4774C8.46517 25.1584 8.61328 24.8394 8.75 24.5204C8.79557 24.3837 8.90951 24.0533 9.0918 23.5292L9.19434 23.2216H10.9717V67.0741C10.9717 68.1451 11.3477 69.0565 12.0996 69.8085C12.8743 70.5604 13.7972 70.9364 14.8682 70.9364L15.3467 70.9022Z" fill="#4F1034"/>
</svg>
