<svg width="76" height="103" viewBox="0 0 76 103" fill="none" xmlns="http://www.w3.org/2000/svg">
<path d="M23.3125 91.75H23.1875C21.1458 91.75 18.7083 92.0625 15.875 92.6875C13.0833 93.2708 10.6042 93.875 8.4375 94.5C6.27083 95.0833 5.16667 95.375 5.125 95.375L5 95.4375H3.125L2.9375 94.9375C2.9375 94.9375 2.8125 94.6667 2.5625 94.125C1.14583 90.375 0.4375 86.5208 0.4375 82.5625C0.4375 79.1042 0.9375 75.7083 1.9375 72.375C2.97917 69 4.52083 65.875 6.5625 63C7.22917 62.0833 7.9375 61.1875 8.6875 60.3125C9.9375 58.8125 11.7708 57.1042 14.1875 55.1875C16.6458 53.2708 19.5208 51.8333 22.8125 50.875C26.0208 50.0833 29.2917 49.6667 32.625 49.625H33.0625C35.4375 49.625 37.8958 49.5833 40.4375 49.5C46.9792 49.0833 52.2708 47.7708 56.3125 45.5625C58.3958 44.4792 60.1875 43.1458 61.6875 41.5625C63.6458 39.4375 64.625 37.0833 64.625 34.5C64.625 33.0833 64.3125 31.7083 63.6875 30.375C63.6458 30.25 63.6042 30.1458 63.5625 30.0625C61.8125 26.5625 58.6042 23.2708 53.9375 20.1875C46.6875 15.3542 39.375 12.6042 32 11.9375C30.9167 11.8542 29.875 11.8125 28.875 11.8125C26.7083 11.8125 24.5417 12 22.375 12.375C21.5 12.5417 20.625 12.75 19.75 13H19.6875C19.0625 13.125 18.4792 13.3125 17.9375 13.5625H17.875C15.625 14.5208 13.8333 15.9792 12.5 17.9375C11.2083 19.8542 10.5625 22.0208 10.5625 24.4375V25.25H7.9375V16L8.25 15.75C11.2083 13.2917 14.4583 11.2292 18 9.5625C24.6667 6.52083 31.5208 5 38.5625 5C42.4375 5 46.2292 5.45833 49.9375 6.375C56.1875 8 61.0417 10.6875 64.5 14.4375C67.8333 18.2292 69.6458 22.6458 69.9375 27.6875V28.6875C69.9375 33.2292 68.4792 37.4583 65.5625 41.375C62.1042 45.75 57.2917 48.7917 51.125 50.5C46.5833 51.7083 41.4583 52.3125 35.75 52.3125H32.6875C31.6458 52.3125 30.4792 52.3542 29.1875 52.4375C27.9375 52.5208 26.625 52.7292 25.25 53.0625C22.5417 53.7292 19.8333 54.9792 17.125 56.8125C12.875 59.6042 9.72917 63.125 7.6875 67.375C6.27083 70.1667 5.5625 73.1667 5.5625 76.375C5.5625 78.125 5.8125 79.8542 6.3125 81.5625C6.85417 83.2292 7.70833 84.7708 8.875 86.1875C9.83333 85.8542 11.4583 85.3333 13.75 84.625C16.0417 83.9167 18.5417 83.25 21.25 82.625C23.9583 81.9583 26.2708 81.625 28.1875 81.625H28.3125C30.6875 81.625 33.0625 81.7917 35.4375 82.125C37.8125 82.4583 40.1458 82.8333 42.4375 83.25C44.6458 83.625 46.8333 83.9792 49 84.3125C51.375 84.6458 53.5833 84.8125 55.625 84.8125H56.3125C61.3125 84.8125 65.5208 83.9167 68.9375 82.125L70.1875 81.4375L70.125 82.875C69.75 86.25 68.375 89.0417 66 91.25C63.6667 93.4167 61.0833 94.8958 58.25 95.6875C56.2917 96.2292 54.125 96.5 51.75 96.5C49.7083 96.5 47.7083 96.3333 45.75 96C43.7917 95.6667 42.0208 95.3125 40.4375 94.9375C39.3542 94.6458 38.2708 94.375 37.1875 94.125C34.9375 93.5 32.6458 92.9583 30.3125 92.5C27.9792 92 25.6458 91.75 23.3125 91.75Z" fill="#904F69" fill-opacity="0.54"/>
<path d="M12.749 72.2227H12.6807C11.5641 72.2227 10.2311 72.3936 8.68164 72.7354C7.15495 73.0544 5.79915 73.3848 4.61426 73.7266C3.42936 74.0456 2.82552 74.2051 2.80273 74.2051L2.73438 74.2393H1.70898L1.60645 73.9658C1.60645 73.9658 1.53809 73.8177 1.40137 73.5215C0.626628 71.4707 0.239258 69.363 0.239258 67.1982C0.239258 65.307 0.512695 63.4499 1.05957 61.627C1.62923 59.7812 2.47233 58.0723 3.58887 56.5C3.95345 55.9987 4.34082 55.5088 4.75098 55.0303C5.43457 54.21 6.43717 53.2757 7.75879 52.2275C9.10319 51.1794 10.6755 50.3932 12.4756 49.8691C14.2301 49.4362 16.0189 49.2083 17.8418 49.1855H18.0811C19.3799 49.1855 20.7243 49.1628 22.1143 49.1172C25.6917 48.8893 28.5856 48.1715 30.7959 46.9639C31.9352 46.3714 32.915 45.6423 33.7354 44.7764C34.8063 43.6143 35.3418 42.3268 35.3418 40.9141C35.3418 40.1393 35.1709 39.3874 34.8291 38.6582C34.8063 38.5898 34.7835 38.5329 34.7607 38.4873C33.8037 36.5732 32.0492 34.7731 29.4971 33.0869C25.5322 30.4437 21.5332 28.9398 17.5 28.5752C16.9076 28.5296 16.3379 28.5068 15.791 28.5068C14.6061 28.5068 13.4212 28.6094 12.2363 28.8145C11.7578 28.9056 11.2793 29.0195 10.8008 29.1562H10.7666C10.4248 29.2246 10.1058 29.3271 9.80957 29.4639H9.77539C8.54492 29.988 7.5651 30.7855 6.83594 31.8564C6.12956 32.9046 5.77637 34.0895 5.77637 35.4111V35.8555H4.34082V30.7969L4.51172 30.6602C6.12956 29.3158 7.9069 28.1878 9.84375 27.2764C13.4896 25.613 17.238 24.7812 21.0889 24.7812C23.208 24.7812 25.2816 25.0319 27.3096 25.5332C30.7275 26.4219 33.3822 27.8916 35.2734 29.9424C37.0964 32.016 38.0876 34.4313 38.2471 37.1885V37.7354C38.2471 40.2191 37.4495 42.5319 35.8545 44.6738C33.9632 47.0664 31.3314 48.7298 27.959 49.6641C25.4753 50.3249 22.6725 50.6553 19.5508 50.6553H17.876C17.3063 50.6553 16.6683 50.6781 15.9619 50.7236C15.2783 50.7692 14.5605 50.8831 13.8086 51.0654C12.3275 51.43 10.8464 52.1136 9.36523 53.1162C7.04102 54.6429 5.32064 56.5684 4.2041 58.8926C3.42936 60.4193 3.04199 62.0599 3.04199 63.8145C3.04199 64.7715 3.17871 65.7171 3.45215 66.6514C3.74837 67.5628 4.21549 68.4059 4.85352 69.1807C5.3776 68.9984 6.26628 68.7135 7.51953 68.3262C8.77279 67.9388 10.14 67.5742 11.6211 67.2324C13.1022 66.8678 14.3669 66.6855 15.415 66.6855H15.4834C16.7822 66.6855 18.0811 66.7767 19.3799 66.959C20.6787 67.1413 21.9548 67.3464 23.208 67.5742C24.4157 67.7793 25.612 67.973 26.7969 68.1553C28.0957 68.3376 29.3034 68.4287 30.4199 68.4287H30.7959C33.5303 68.4287 35.8317 67.9388 37.7002 66.959L38.3838 66.583L38.3496 67.3691C38.1445 69.2148 37.3926 70.7415 36.0938 71.9492C34.8177 73.1341 33.4049 73.943 31.8555 74.376C30.7845 74.6722 29.5996 74.8203 28.3008 74.8203C27.1842 74.8203 26.0905 74.7292 25.0195 74.5469C23.9486 74.3646 22.9801 74.1709 22.1143 73.9658C21.5218 73.8063 20.9294 73.6582 20.3369 73.5215C19.1064 73.1797 17.8532 72.8835 16.5771 72.6328C15.3011 72.3594 14.0251 72.2227 12.749 72.2227Z" fill="#4F1034"/>
</svg>
