<svg width="76" height="104" viewBox="0 0 76 104" fill="none" xmlns="http://www.w3.org/2000/svg">
<path d="M2.75 14.625V15.4375H0.1875V0.375H63.0625V2.9375H62.25C58.5 2.9375 55.4792 4.41667 53.1875 7.375L43.0625 23C47.6458 23.5417 51.8958 25.0417 55.8125 27.5C60.0208 30.125 63.4375 33.5208 66.0625 37.6875C69.2708 42.8958 70.875 48.4792 70.875 54.4375C70.875 62.7292 67.875 70.0833 61.875 76.5C61.8333 76.5833 61.75 76.6875 61.625 76.8125C61.5 76.9375 61.3333 77.0833 61.125 77.25C56.8333 81.4167 51.9792 84.6042 46.5625 86.8125C41.1875 89.0208 35.5417 90.125 29.625 90.125C22.5 90.125 15.7708 88.5417 9.4375 85.375C8.89583 85.0833 8.3125 84.9375 7.6875 84.9375C6.72917 84.9375 5.875 85.25 5.125 85.875C4.41667 86.4583 3.97917 87.25 3.8125 88.25C3.77083 88.5833 3.75 88.9167 3.75 89.25L3.8125 90.125H1.1875V62.5625H3.8125L3.75 63.4375C3.75 65.0625 4.27083 66.5417 5.3125 67.875L6.25 68.8125H6.3125V68.875C7.89583 70.4167 9.58333 71.875 11.375 73.25C20.3333 79.875 29.4583 83.1875 38.75 83.1875C45.625 83.1875 51.6458 81.3125 56.8125 77.5625C57.4375 77.1042 58.0417 76.625 58.625 76.125L59.25 75.5C59.2917 75.4167 59.375 75.3542 59.5 75.3125C59.5833 75.1875 59.6667 75.1042 59.75 75.0625C62.2917 72.3542 63.6875 69.3333 63.9375 66V64.6875C63.9375 57.3125 61.4375 50.4167 56.4375 44C51.4792 37.5417 45.1458 33.0833 37.4375 30.625C34.8958 29.875 32.4375 29.5 30.0625 29.5C28.8125 29.5 27.6042 29.6042 26.4375 29.8125L24.625 30.125L42.25 2.9375H14.375C11.0833 3.0625 8.3125 4.25 6.0625 6.5C3.85417 8.70833 2.75 11.4167 2.75 14.625Z" fill="#904F69" fill-opacity="0.54"/>
<path d="M1.50391 33.7793V34.2236H0.102539V25.9863H34.4873V27.3877H34.043C31.9922 27.3877 30.3402 28.1966 29.0869 29.8145L23.5498 38.3594C26.0563 38.6556 28.3805 39.4759 30.5225 40.8203C32.8239 42.2559 34.6924 44.113 36.1279 46.3916C37.8825 49.2399 38.7598 52.2933 38.7598 55.5518C38.7598 60.0863 37.1191 64.1081 33.8379 67.6172C33.8151 67.6628 33.7695 67.7197 33.7012 67.7881C33.6328 67.8564 33.5417 67.9362 33.4277 68.0273C31.0807 70.306 28.4261 72.0492 25.4639 73.2568C22.5244 74.4645 19.4368 75.0684 16.2012 75.0684C12.3047 75.0684 8.62467 74.2025 5.16113 72.4707C4.86491 72.3112 4.5459 72.2314 4.2041 72.2314C3.68001 72.2314 3.21289 72.4023 2.80273 72.7441C2.41536 73.0632 2.17611 73.4961 2.08496 74.043C2.06217 74.2253 2.05078 74.4076 2.05078 74.5898L2.08496 75.0684H0.649414V59.9951H2.08496L2.05078 60.4736C2.05078 61.3623 2.33561 62.1712 2.90527 62.9004L3.41797 63.4131H3.45215V63.4473C4.31803 64.2904 5.24089 65.0879 6.2207 65.8398C11.1198 69.4629 16.11 71.2744 21.1914 71.2744C24.9512 71.2744 28.2438 70.249 31.0693 68.1982C31.4111 67.9476 31.7415 67.6855 32.0605 67.4121L32.4023 67.0703C32.4251 67.0247 32.4707 66.9906 32.5391 66.9678C32.5846 66.8994 32.6302 66.8538 32.6758 66.8311C34.0658 65.3499 34.8291 63.6979 34.9658 61.875V61.1572C34.9658 57.124 33.5986 53.3529 30.8643 49.8438C28.1527 46.3118 24.6891 43.8737 20.4736 42.5293C19.0837 42.1191 17.7393 41.9141 16.4404 41.9141C15.7568 41.9141 15.096 41.971 14.458 42.085L13.4668 42.2559L23.1055 27.3877H7.86133C6.0612 27.4561 4.5459 28.1055 3.31543 29.3359C2.10775 30.5436 1.50391 32.0247 1.50391 33.7793Z" fill="#4F1034"/>
</svg>
