<svg width="78" height="109" viewBox="0 0 78 109" fill="none" xmlns="http://www.w3.org/2000/svg">
<path d="M48.375 80.0625V69.125H0.0625V67.1875L53.875 0.25H68.1875V2.9375L67.3125 2.8125C65.3125 2.89583 63.625 3.625 62.25 5C60.9167 6.33333 60.25 7.97917 60.25 9.9375V66.5H63.1875C66.5208 66.4167 69.2917 65.25 71.5 63C73.75 60.7083 74.875 57.9583 74.875 54.75V53.875H77.5V69.125H60.25V80.0625C60.25 82.0208 60.9375 83.6875 62.3125 85.0625C63.6875 86.4375 65.3542 87.125 67.3125 87.125L68.1875 87.0625V89.75H40.375V87.0625L41.25 87.125C43.25 87.0833 44.9375 86.3958 46.3125 85.0625C47.6875 83.6875 48.375 82.0208 48.375 80.0625ZM48.375 11.3125L3.875 66.5H48.375V11.3125Z" fill="#904F69" fill-opacity="0.54"/>
<path d="M26.4551 67.5654V61.584H0.0341797V60.5244L29.4629 23.918H37.29V25.3877L36.8115 25.3193C35.7178 25.3649 34.7949 25.7637 34.043 26.5156C33.3138 27.2448 32.9492 28.1449 32.9492 29.2158V60.1484H34.5557C36.3786 60.1029 37.8939 59.4648 39.1016 58.2344C40.332 56.9811 40.9473 55.4772 40.9473 53.7227V53.2441H42.3828V61.584H32.9492V67.5654C32.9492 68.6364 33.3252 69.5479 34.0771 70.2998C34.8291 71.0518 35.7406 71.4277 36.8115 71.4277L37.29 71.3936V72.8633H22.0801V71.3936L22.5586 71.4277C23.6523 71.4049 24.5752 71.029 25.3271 70.2998C26.0791 69.5479 26.4551 68.6364 26.4551 67.5654ZM26.4551 29.9678L2.11914 60.1484H26.4551V29.9678Z" fill="#4F1034"/>
</svg>
