<svg width="182" height="44" viewBox="0 0 182 44" fill="none" xmlns="http://www.w3.org/2000/svg">
<g clip-path="url(#clip0_1012_9)">
<path d="M2.34245 4.15929C4.31611 4.67466 6.12563 5.04653 7.86626 5.61848C17.5441 8.79555 23.2908 15.6408 25.9291 25.2448C26.6302 27.7973 26.9625 30.451 27.4509 33.0621C27.5157 33.4098 27.4934 33.7735 27.5258 34.4001C21.7771 29.9619 18.0993 24.1292 14.1803 18.4925C16.3161 25.6833 20.1175 31.7525 26.229 36.3524C20.0729 35.8148 14.1155 36.2978 8.55522 39.2223C10.229 38.8949 11.8926 38.4866 13.5805 38.2603C15.3495 38.0238 17.1388 37.8843 18.924 37.8419C20.6646 37.7995 22.4113 37.9328 24.2411 37.9935C20.5897 44.1576 8.00405 45.9826 0 41.5586C4.23911 34.7436 9.74468 30.4671 18.383 32.0476C18.3911 31.9182 18.4012 31.7909 18.4093 31.6616C16.8045 31.2452 15.2158 30.7541 13.5927 30.4368C12.5775 30.2388 11.5076 30.2327 10.4681 30.267C9.80344 30.2893 9.41033 30.0447 9.02533 29.5617C7.07599 27.1061 6.06079 24.2848 5.79129 21.2047C5.35968 16.2976 4.68085 11.4391 3.18946 6.72601C2.94833 5.96206 2.68693 5.20215 2.34245 4.16132V4.15929Z" fill="#4F1034"/>
<path d="M28.4518 42.9693C28.2188 39.673 28.0547 36.4474 30.3485 33.82C31.1205 32.9368 32.3809 32.4579 33.4589 31.8657C34.2208 31.4453 35.1023 31.2331 35.8318 30.7703C36.9422 30.067 37.1611 29.0362 36.5552 27.8741C36.3242 27.4295 36.0141 27.0233 35.7163 26.6171C35.1185 25.7985 34.6849 25.0083 35.2239 23.9311C35.6595 23.058 34.8693 22.7872 33.9209 22.4517C34.2796 22.2456 34.4883 22.1768 34.6281 22.0394C35.6555 21.043 35.5927 20.5418 34.3728 19.79C33.3515 19.1594 33.2401 18.7108 33.8358 17.6275C35.1651 15.2123 34.9868 14.9254 32.1945 14.8708C30.391 14.8344 28.6302 14.6182 27.2421 13.4419C27.5238 12.5951 27.7791 11.8231 28.0344 11.0531C27.9594 11.0409 27.8865 11.0288 27.8115 11.0187C27.236 11.4674 26.6605 11.916 25.9736 12.4516C25.7487 11.9282 25.621 11.629 25.4934 11.3299C24.5876 9.19976 23.0557 7.7527 20.8652 6.9463C20.3951 6.77249 19.8966 6.34808 19.6656 5.90749C18.618 3.89454 16.9341 2.8537 14.6666 2.5263C20.0385 -0.697258 28.7315 -1.20656 35.7528 3.1993C43.6555 8.15893 47.3779 17.005 45.538 26.326C43.9149 34.5456 36.8166 41.5363 28.4539 42.9693H28.4518Z" fill="#4F1034"/>
</g>
<path d="M64.408 12.648C65.368 12.648 66.36 12.7333 67.384 12.904C68.4293 13.0747 69.2507 13.3093 69.848 13.608C70.04 13.6933 70.1573 13.7787 70.2 13.864C70.264 13.9493 70.3067 14.1093 70.328 14.344L70.712 18.504C70.712 18.568 70.6587 18.6107 70.552 18.632C70.4453 18.632 70.3813 18.6 70.36 18.536C69.7413 16.872 68.8027 15.6027 67.544 14.728C66.3067 13.8533 64.8453 13.416 63.16 13.416C60.92 13.416 59.1707 14.1947 57.912 15.752C56.6533 17.3093 56.024 19.4 56.024 22.024C56.024 23.9867 56.376 25.7893 57.08 27.432C57.784 29.0747 58.744 30.376 59.96 31.336C61.1973 32.296 62.5733 32.776 64.088 32.776C66.968 32.776 69.1547 30.984 70.648 27.4C70.6907 27.336 70.744 27.304 70.808 27.304C70.8507 27.304 70.8933 27.3253 70.936 27.368C71 27.3893 71.032 27.4107 71.032 27.432L70.552 31.528C70.5093 31.784 70.456 31.9547 70.392 32.04C70.3493 32.104 70.232 32.1787 70.04 32.264C68.184 33.0107 66.2107 33.384 64.12 33.384C61.5173 33.384 59.352 32.872 57.624 31.848C55.896 30.8027 54.616 29.48 53.784 27.88C52.9733 26.28 52.568 24.616 52.568 22.888C52.568 20.8827 53.112 19.1013 54.2 17.544C55.3093 15.9867 56.7707 14.7813 58.584 13.928C60.3973 13.0747 62.3387 12.648 64.408 12.648ZM77.1102 30.152L91.1903 15.144L91.7663 15.688L77.7183 30.728L77.1102 30.152ZM73.4303 33C73.3876 33 73.3663 32.936 73.3663 32.808C73.3663 32.68 73.3876 32.616 73.4303 32.616C74.1983 32.616 74.7636 32.5627 75.1263 32.456C75.4889 32.3493 75.7343 32.1467 75.8623 31.848C75.9903 31.528 76.0543 31.048 76.0543 30.408V15.592C76.0543 14.952 75.9903 14.4827 75.8623 14.184C75.7343 13.8853 75.4889 13.6827 75.1263 13.576C74.7636 13.448 74.2089 13.384 73.4622 13.384C73.4196 13.384 73.3983 13.32 73.3983 13.192C73.3983 13.064 73.4196 13 73.4622 13L75.1583 13.032C76.1396 13.0747 76.9076 13.096 77.4623 13.096C78.2089 13.096 79.0943 13.0747 80.1183 13.032L81.7823 13C81.8249 13 81.8463 13.064 81.8463 13.192C81.8463 13.32 81.8249 13.384 81.7823 13.384C81.0143 13.384 80.4383 13.448 80.0543 13.576C79.6916 13.704 79.4356 13.928 79.2863 14.248C79.1583 14.5467 79.0943 15.016 79.0943 15.656V30.408C79.0943 31.048 79.1583 31.528 79.2863 31.848C79.4143 32.1467 79.6596 32.3493 80.0223 32.456C80.4063 32.5627 80.9929 32.616 81.7823 32.616C81.8249 32.616 81.8463 32.68 81.8463 32.808C81.8463 32.936 81.8249 33 81.7823 33C81.0569 33 80.4916 32.9893 80.0863 32.968L77.4623 32.936L75.1263 32.968C74.7209 32.9893 74.1556 33 73.4303 33ZM86.9983 33C86.9343 33 86.9023 32.936 86.9023 32.808C86.9023 32.68 86.9343 32.616 86.9983 32.616C87.8089 32.616 88.3956 32.5627 88.7583 32.456C89.1423 32.3493 89.3983 32.1467 89.5263 31.848C89.6543 31.528 89.7183 31.048 89.7183 30.408V15.656C89.7183 15.016 89.6543 14.5467 89.5263 14.248C89.3983 13.928 89.1423 13.704 88.7583 13.576C88.3743 13.448 87.7876 13.384 86.9983 13.384C86.9343 13.384 86.9023 13.32 86.9023 13.192C86.9023 13.064 86.9343 13 86.9983 13L88.5343 13.032C89.5583 13.0747 90.4649 13.096 91.2543 13.096C91.8303 13.096 92.6089 13.0747 93.5903 13.032L95.3503 13C95.4143 13 95.4463 13.064 95.4463 13.192C95.4463 13.32 95.4143 13.384 95.3503 13.384C94.5823 13.384 94.0169 13.448 93.6543 13.576C93.3129 13.6827 93.0783 13.8853 92.9503 14.184C92.8223 14.4827 92.7583 14.952 92.7583 15.592V30.408C92.7583 31.048 92.8223 31.528 92.9503 31.848C93.0783 32.1467 93.3129 32.3493 93.6543 32.456C94.0169 32.5627 94.5823 32.616 95.3503 32.616C95.4143 32.616 95.4463 32.68 95.4463 32.808C95.4463 32.936 95.4143 33 95.3503 33C94.6249 33 94.0383 32.9893 93.5903 32.968L91.2543 32.936L88.5343 32.968C88.1503 32.9893 87.6383 33 86.9983 33ZM114.966 32.616C115.009 32.616 115.03 32.68 115.03 32.808C115.03 32.936 115.009 33 114.966 33C114.198 33 113.612 32.9893 113.206 32.968L110.838 32.936L108.502 32.968C108.097 32.9893 107.553 33 106.87 33C106.806 33 106.774 32.936 106.774 32.808C106.774 32.68 106.806 32.616 106.87 32.616C107.596 32.616 108.118 32.5627 108.438 32.456C108.78 32.3493 109.004 32.1467 109.11 31.848C109.238 31.5493 109.302 31.0693 109.302 30.408V22.472L110.358 22.632C109.526 22.632 108.822 22.7493 108.246 22.984C107.692 23.1973 107.105 23.656 106.486 24.36C105.889 25.064 105.174 26.152 104.342 27.624C103.276 29.4587 102.497 30.7493 102.006 31.496C101.537 32.2213 101.206 32.6587 101.014 32.808C100.822 32.936 100.566 33 100.246 33H96.3742C96.3316 33 96.3102 32.936 96.3102 32.808C96.3102 32.68 96.3316 32.616 96.3742 32.616C96.9289 32.5947 97.4196 32.4453 97.8463 32.168C98.2729 31.8693 98.6676 31.4747 99.0303 30.984C99.3929 30.472 99.9049 29.672 100.566 28.584C100.694 28.3493 101.014 27.816 101.526 26.984C102.209 25.8533 102.87 24.9787 103.51 24.36C104.15 23.72 104.822 23.272 105.526 23.016C106.23 22.7387 107.073 22.5573 108.054 22.472L108.278 22.696C105.825 22.6747 103.948 22.2373 102.646 21.384C101.345 20.5093 100.694 19.3253 100.694 17.832C100.694 16.872 100.972 16.0187 101.526 15.272C102.081 14.5253 102.849 13.9493 103.83 13.544C104.812 13.1173 105.91 12.904 107.126 12.904C107.617 12.904 108.182 12.936 108.822 13C109.078 13.0213 109.377 13.0427 109.718 13.064C110.06 13.0853 110.433 13.096 110.838 13.096C111.436 13.096 112.225 13.0747 113.206 13.032L114.934 13C114.977 13 114.998 13.064 114.998 13.192C114.998 13.32 114.977 13.384 114.934 13.384C114.145 13.384 113.569 13.448 113.206 13.576C112.844 13.6827 112.609 13.8853 112.502 14.184C112.396 14.4613 112.342 14.9307 112.342 15.592V30.408C112.342 31.0693 112.396 31.5493 112.502 31.848C112.63 32.1467 112.865 32.3493 113.206 32.456C113.569 32.5627 114.156 32.616 114.966 32.616ZM103.862 17.032C103.862 18.568 104.268 19.7947 105.078 20.712C105.889 21.6293 107.062 22.088 108.598 22.088C108.897 22.088 109.217 22.0667 109.558 22.024C109.921 21.9813 110.209 21.928 110.422 21.864L109.302 22.216V15.656C109.302 14.8027 109.089 14.2053 108.662 13.864C108.257 13.5013 107.734 13.32 107.094 13.32C104.94 13.32 103.862 14.5573 103.862 17.032ZM133.696 15.656C133.696 15.016 133.632 14.5467 133.504 14.248C133.376 13.928 133.12 13.704 132.736 13.576C132.352 13.448 131.765 13.384 130.976 13.384C130.912 13.384 130.88 13.32 130.88 13.192C130.88 13.064 130.912 13 130.976 13L132.512 13.032C133.536 13.0747 134.443 13.096 135.232 13.096C135.808 13.096 136.587 13.0747 137.568 13.032L139.328 13C139.392 13 139.424 13.064 139.424 13.192C139.424 13.32 139.392 13.384 139.328 13.384C138.56 13.384 137.995 13.448 137.632 13.576C137.269 13.6827 137.024 13.8853 136.896 14.184C136.768 14.4827 136.704 14.952 136.704 15.592V30.408C136.704 31.048 136.768 31.528 136.896 31.848C137.024 32.1467 137.269 32.3493 137.632 32.456C137.995 32.5627 138.56 32.616 139.328 32.616C139.392 32.616 139.424 32.68 139.424 32.808C139.424 32.936 139.392 33 139.328 33C138.603 33 138.016 32.9893 137.568 32.968L135.232 32.936L132.512 32.968C132.128 32.9893 131.616 33 130.976 33C130.912 33 130.88 32.936 130.88 32.808C130.88 32.68 130.912 32.616 130.976 32.616C131.787 32.616 132.373 32.5627 132.736 32.456C133.12 32.3493 133.376 32.1467 133.504 31.848C133.632 31.528 133.696 31.048 133.696 30.408V15.656ZM121.056 22.184H135.072V23.016H121.056V22.184ZM119.648 15.592C119.648 14.952 119.584 14.4827 119.456 14.184C119.328 13.8853 119.083 13.6827 118.72 13.576C118.357 13.448 117.803 13.384 117.056 13.384C117.013 13.384 116.992 13.32 116.992 13.192C116.992 13.064 117.013 13 117.056 13L118.752 13.032C119.733 13.0747 120.501 13.096 121.056 13.096C121.803 13.096 122.688 13.0747 123.712 13.032L125.376 13C125.419 13 125.44 13.064 125.44 13.192C125.44 13.32 125.419 13.384 125.376 13.384C124.608 13.384 124.032 13.448 123.648 13.576C123.285 13.704 123.029 13.928 122.88 14.248C122.752 14.5467 122.688 15.016 122.688 15.656V30.408C122.688 31.048 122.752 31.528 122.88 31.848C123.008 32.1467 123.253 32.3493 123.616 32.456C124 32.5627 124.587 32.616 125.376 32.616C125.419 32.616 125.44 32.68 125.44 32.808C125.44 32.936 125.419 33 125.376 33C124.651 33 124.085 32.9893 123.68 32.968L121.056 32.936L118.72 32.968C118.315 32.9893 117.749 33 117.024 33C116.981 33 116.96 32.936 116.96 32.808C116.96 32.68 116.981 32.616 117.024 32.616C117.792 32.616 118.357 32.5627 118.72 32.456C119.083 32.3493 119.328 32.1467 119.456 31.848C119.584 31.528 119.648 31.048 119.648 30.408V15.592ZM145.079 30.152L159.159 15.144L159.735 15.688L145.687 30.728L145.079 30.152ZM141.399 33C141.356 33 141.335 32.936 141.335 32.808C141.335 32.68 141.356 32.616 141.399 32.616C142.167 32.616 142.732 32.5627 143.095 32.456C143.458 32.3493 143.703 32.1467 143.831 31.848C143.959 31.528 144.023 31.048 144.023 30.408V15.592C144.023 14.952 143.959 14.4827 143.831 14.184C143.703 13.8853 143.458 13.6827 143.095 13.576C142.732 13.448 142.178 13.384 141.431 13.384C141.388 13.384 141.367 13.32 141.367 13.192C141.367 13.064 141.388 13 141.431 13L143.127 13.032C144.108 13.0747 144.876 13.096 145.431 13.096C146.178 13.096 147.063 13.0747 148.087 13.032L149.751 13C149.794 13 149.815 13.064 149.815 13.192C149.815 13.32 149.794 13.384 149.751 13.384C148.983 13.384 148.407 13.448 148.023 13.576C147.66 13.704 147.404 13.928 147.255 14.248C147.127 14.5467 147.063 15.016 147.063 15.656V30.408C147.063 31.048 147.127 31.528 147.255 31.848C147.383 32.1467 147.628 32.3493 147.991 32.456C148.375 32.5627 148.962 32.616 149.751 32.616C149.794 32.616 149.815 32.68 149.815 32.808C149.815 32.936 149.794 33 149.751 33C149.026 33 148.46 32.9893 148.055 32.968L145.431 32.936L143.095 32.968C142.69 32.9893 142.124 33 141.399 33ZM154.967 33C154.903 33 154.871 32.936 154.871 32.808C154.871 32.68 154.903 32.616 154.967 32.616C155.778 32.616 156.364 32.5627 156.727 32.456C157.111 32.3493 157.367 32.1467 157.495 31.848C157.623 31.528 157.687 31.048 157.687 30.408V15.656C157.687 15.016 157.623 14.5467 157.495 14.248C157.367 13.928 157.111 13.704 156.727 13.576C156.343 13.448 155.756 13.384 154.967 13.384C154.903 13.384 154.871 13.32 154.871 13.192C154.871 13.064 154.903 13 154.967 13L156.503 13.032C157.527 13.0747 158.434 13.096 159.223 13.096C159.799 13.096 160.578 13.0747 161.559 13.032L163.319 13C163.383 13 163.415 13.064 163.415 13.192C163.415 13.32 163.383 13.384 163.319 13.384C162.551 13.384 161.986 13.448 161.623 13.576C161.282 13.6827 161.047 13.8853 160.919 14.184C160.791 14.4827 160.727 14.952 160.727 15.592V30.408C160.727 31.048 160.791 31.528 160.919 31.848C161.047 32.1467 161.282 32.3493 161.623 32.456C161.986 32.5627 162.551 32.616 163.319 32.616C163.383 32.616 163.415 32.68 163.415 32.808C163.415 32.936 163.383 33 163.319 33C162.594 33 162.007 32.9893 161.559 32.968L159.223 32.936L156.503 32.968C156.119 32.9893 155.607 33 154.967 33ZM165.719 33C165.655 33 165.623 32.936 165.623 32.808C165.623 32.68 165.655 32.616 165.719 32.616C166.444 32.616 166.967 32.5627 167.287 32.456C167.628 32.3493 167.852 32.1467 167.959 31.848C168.087 31.528 168.151 31.048 168.151 30.408V15.592C168.151 14.952 168.087 14.4827 167.959 14.184C167.852 13.8853 167.628 13.6827 167.287 13.576C166.946 13.448 166.423 13.384 165.719 13.384C165.655 13.384 165.623 13.32 165.623 13.192C165.623 13.064 165.655 13 165.719 13H179.031C179.244 13 179.351 13.096 179.351 13.288L179.415 17.448C179.415 17.4907 179.351 17.5227 179.223 17.544C179.116 17.544 179.052 17.512 179.031 17.448C178.519 15.0373 177.047 13.832 174.615 13.832H173.303C172.514 13.832 171.959 13.9707 171.639 14.248C171.34 14.5253 171.191 14.9947 171.191 15.656V30.28C171.191 30.984 171.319 31.4747 171.575 31.752C171.852 32.0293 172.332 32.168 173.015 32.168H174.583C177.442 32.168 179.255 30.792 180.023 28.04C180.023 27.9973 180.076 27.976 180.183 27.976C180.332 27.976 180.407 28.008 180.407 28.072C180.194 29.6933 180.087 31.176 180.087 32.52C180.087 32.6907 180.055 32.8187 179.991 32.904C179.927 32.968 179.799 33 179.607 33H165.719ZM177.815 25.768C177.815 23.9333 176.62 23.016 174.231 23.016H169.751V22.184H174.263C176.61 22.184 177.783 21.3947 177.783 19.816C177.783 19.752 177.836 19.72 177.943 19.72C178.071 19.72 178.135 19.752 178.135 19.816L178.103 22.6L178.135 24.104C178.178 24.7867 178.199 25.3413 178.199 25.768C178.199 25.8107 178.135 25.832 178.007 25.832C177.879 25.832 177.815 25.8107 177.815 25.768Z" fill="#4F1034"/>
<defs>
<clipPath id="clip0_1012_9">
<rect width="46" height="44" fill="white"/>
</clipPath>
</defs>
</svg>
